
<svg xmlns="http://www.w3.org/2000/svg" xmlns:xlink="http://www.w3.org/1999/xlink" viewBox="0 0 63.21122447509765 95.481" height="95.481" width="63.21122447509765" data-background-color="#77d4fc" preserveAspectRatio="xMidYMid meet" id="tight-bounds"><g><svg viewBox="0 0 63.21122447509765 95.481" height="95.481" width="63.21122447509765"><g><svg viewBox="0 0 63.21122447509765 95.481" height="95.481" width="63.21122447509765"><g id="textblocktransform"><svg viewBox="0 0 63.21122447509765 95.481" height="95.481" width="63.21122447509765" id="textblock"><g><svg viewBox="0 0 63.21122447509765 95.481" height="95.481" width="63.21122447509765"><g><svg viewBox="0 0 63.21122447509765 95.481" height="95.481" width="63.21122447509765"><g><svg xmlns="http://www.w3.org/2000/svg" xmlns:xlink="http://www.w3.org/1999/xlink" version="1.1" x="0" y="0" viewBox="24.761856079101562 5 59.5826416015625 90" enable-background="new 0 0 100 100" xml:space="preserve" height="95.481" width="63.21122447509765" class="icon-icon-0" data-fill-palette-color="accent" id="icon-0"><g fill="#0023ff" data-fill-palette-color="accent"><path d="M73.76 35.603C86.875 48 91.5 66.25 65.633 82.379c3.64-4.928 5.654-9.794 6.096-14.669 0.951-10.516-5.606-19.072-12.835-26.752C48.298 29.7 47.51 18.84 56.413 6.782 54.578 22.641 64.6 26.944 73.76 35.603zM45.288 93.716c6.184-13.053 7.276-20.302-8.197-34.939-4.204-3.977-7.451-8.029-9.71-12.086-2.881 6.435-5.164 20.081 3.244 27.935C36.312 79.938 44.125 83.125 45.288 93.716zM56.709 43.014C48.183 33.954 41.999 21.253 54 5 21.497 17.692 19.625 38.125 39.151 56.597 55.603 72.158 54.75 80.75 48 95 79.875 71.5 68.709 55.764 56.709 43.014z" fill="#0023ff" data-fill-palette-color="accent"/></g><g display="none" fill="#0023ff" data-fill-palette-color="accent"><path display="inline" d="M54 5C16.75 17.5 14.875 56.5 26.75 70.762c10.558 12.68 15.407 7.949 19.675 20.824" fill="#0023ff" data-fill-palette-color="accent"/><line display="inline" x1="56.988" y1="5.261" x2="45.528" y2="136.262" fill="#0023ff" data-fill-palette-color="accent"/><line display="inline" x1="54.131" y1="3.502" x2="42.67" y2="134.502" fill="#0023ff" data-fill-palette-color="accent"/><path display="inline" d="M42.875 76" fill="#0023ff" data-fill-palette-color="accent"/></g></svg></g></svg></g></svg></g></svg></g></svg></g></svg></g><defs/></svg>